<svg width="21" height="19" viewBox="0 0 21 19" fill="none" xmlns="http://www.w3.org/2000/svg">
<path d="M12.6014 17.0006H15.1217C15.5861 17.0006 15.9618 17.3762 15.9618 17.8407C15.9618 18.3052 15.5861 18.6808 15.1217 18.6808H5.88066C5.41621 18.6808 5.04056 18.3052 5.04056 17.8407C5.04056 17.3762 5.41621 17.0006 5.88066 17.0006H7.98089V14.9004H1.68019C1.23472 14.8999 0.807635 14.7227 0.492642 14.4077C0.177649 14.0927 0.000476517 13.6657 0 13.2202L0 1.87892C0 0.952415 0.753684 0.19873 1.68019 0.19873H19.3222C20.2487 0.19873 21.0023 0.952415 21.0023 1.87892V13.2202C21.0023 14.1467 20.2487 14.9004 19.3222 14.9004H12.6014V17.0006ZM11.7613 17.0006V14.9004H8.82099V17.0006H11.7613ZM1.68019 1.87892V13.2202H19.3222V1.87892H1.68019Z" fill="#161823"/>
</svg>
